<svg width="128" height="36" viewBox="0 0 128 36" fill="none" xmlns="http://www.w3.org/2000/svg">
<mask id="mask0_34_2797" style="mask-type:alpha" maskUnits="userSpaceOnUse" x="0" y="1" width="30" height="34">
<path d="M12.0589 2.44615C13.8053 1.43787 15.9569 1.43787 17.7033 2.44615L26.94 7.77895C28.6864 8.78722 29.7622 10.6506 29.7622 12.6671V23.3327C29.7622 25.3493 28.6864 27.2127 26.94 28.2209L17.7033 33.5537C15.9569 34.562 13.8053 34.562 12.0589 33.5537L2.8222 28.2209C1.07582 27.2127 0 25.3493 0 23.3327V12.6671C0 10.6506 1.07582 8.78722 2.8222 7.77895L12.0589 2.44615Z" fill="#1C64F2"/>
</mask>
<g mask="url(#mask0_34_2797)">
<path d="M14.8768 0.535889L31.1887 9.95352L22.9338 14.3983L19.5241 12.5384L16.4243 12.8484L8.67486 10.0586L6.815 12.5384L5.88507 13.7783L4.02521 12.5384L-1.43499 9.95353L14.8768 0.535889Z" fill="#3B82F6"/>
<path d="M-0.12854 10.0869L6.19935 13.1555L9.91908 22.1448L9.91908 22.4548L11.159 24.0047L16.7386 28.3444L14.8806 36.0835L-0.12854 27.4179L-0.12854 10.0869Z" fill="#3B82F6"/>
<path d="M19.8341 22.4544L23.8638 13.775L29.886 10.0888L29.886 27.4198L14.8769 36.0854L14.5645 28.3439L19.8341 22.4544Z" fill="#3B82F6"/>
<path d="M14.8762 7.58264C12.3114 7.58264 9.97398 8.55612 8.21311 10.1537L9.64267 22.4614C10.0336 22.6419 12.2757 23.3915 12.7063 23.3915H15.8061C16.354 23.3915 20.1458 22.2237 20.1458 22.7715L19.8358 21.4695C19.8358 22.0174 19.3917 22.4614 18.8439 22.4614H10.9085C10.3606 22.4614 9.91655 22.0174 9.91655 21.4695V16.6675C9.91655 16.2369 9.82311 15.8115 9.64267 15.4205L8.21311 10.1537C6.61551 11.9145 4.95691 14.9371 4.95691 17.5019C4.95691 22.9802 9.39787 27.4212 14.8762 27.4212C20.3545 27.4212 24.7955 22.9802 24.7955 17.5019C24.7955 12.0236 20.3545 7.58264 14.8762 7.58264Z" fill="#3B82F6"/>
<rect width="10.5392" height="10.5392" transform="translate(8.24121 20.1903) rotate(-66.1323)" fill="#3B82F6"/>
<path d="M13.0393 11.7228C13.2583 11.6383 13.4926 11.6051 13.7246 11.6258C13.9565 11.6465 14.18 11.7205 14.3781 11.8422C14.5761 11.9638 14.7436 12.13 14.8678 12.3282C14.9921 12.5263 15.0697 12.7511 15.095 12.9857C15.2751 14.6756 14.8956 16.3866 14.016 17.8503C13.1364 19.3139 11.8066 20.4473 10.2352 21.0726L9.1231 18.1972C10.0618 17.8233 10.8568 17.1473 11.3846 16.2743C11.9124 15.4014 12.1433 14.3803 12.0415 13.37C12.0044 13.0251 12.0821 12.6757 12.2624 12.3773C12.4427 12.0789 12.7152 11.8485 13.0367 11.7227L13.0393 11.7228Z" fill="#9C5AFF"/>
<path d="M13.0266 11.7275C12.6467 11.8788 12.3394 12.176 12.1723 12.5537C12.0052 12.9313 11.9919 13.3586 12.1354 13.7415L15.3855 22.4083C15.5291 22.7912 15.8178 23.0982 16.1879 23.262C16.5581 23.4258 16.9794 23.4329 17.3594 23.2817C17.5475 23.2069 17.7199 23.0954 17.8665 22.9537C18.0131 22.812 18.1312 22.6427 18.214 22.4557C18.2967 22.2687 18.3426 22.0675 18.3488 21.8636C18.3551 21.6598 18.3217 21.4573 18.2505 21.2677L15.0005 12.6009C14.9294 12.4112 14.822 12.2382 14.6844 12.0916C14.5467 11.9451 14.3815 11.8279 14.1982 11.7468C14.0149 11.6657 13.817 11.6222 13.616 11.6189C13.415 11.6156 13.2147 11.6525 13.0266 11.7275Z" fill="#9C5AFF"/>
<path d="M17.3451 23.2841C17.1262 23.3687 16.8919 23.4019 16.66 23.3813C16.4281 23.3607 16.2046 23.2867 16.0065 23.1651C15.8085 23.0435 15.641 22.8774 15.5168 22.6793C15.3926 22.4812 15.3149 22.2564 15.2896 22.0219C15.1097 20.332 15.4893 18.621 16.3688 17.1573C17.2483 15.6935 18.5779 14.56 20.1492 13.9344L21.2613 16.8109C20.3227 17.1847 19.5276 17.8607 18.9998 18.7337C18.472 19.6067 18.2411 20.6277 18.343 21.638C18.3795 21.9831 18.3012 22.3324 18.1204 22.6306C17.9397 22.9288 17.6668 23.1588 17.3451 23.2841Z" fill="#9C5AFF"/>
</g>
<path d="M47.1571 27L42.231 9.54545H45.6315L48.7764 22.3722H48.9383L52.2963 9.54545H55.39L58.7565 22.3807H58.9099L62.0548 9.54545H65.4554L60.5293 27H57.4099L53.9156 14.7528H53.7793L50.2764 27H47.1571ZM71.8858 27.2557C70.6074 27.2557 69.4994 26.9744 68.5619 26.4119C67.6244 25.8494 66.8972 25.0625 66.3801 24.0511C65.8687 23.0398 65.6131 21.858 65.6131 20.5057C65.6131 19.1534 65.8687 17.9687 66.3801 16.9517C66.8972 15.9347 67.6244 15.1449 68.5619 14.5824C69.4994 14.0199 70.6074 13.7386 71.8858 13.7386C73.1642 13.7386 74.2722 14.0199 75.2097 14.5824C76.1472 15.1449 76.8716 15.9347 77.3829 16.9517C77.9 17.9687 78.1585 19.1534 78.1585 20.5057C78.1585 21.858 77.9 23.0398 77.3829 24.0511C76.8716 25.0625 76.1472 25.8494 75.2097 26.4119C74.2722 26.9744 73.1642 27.2557 71.8858 27.2557ZM71.9028 24.7841C72.596 24.7841 73.1756 24.5937 73.6415 24.2131C74.1074 23.8267 74.454 23.3097 74.6812 22.6619C74.9142 22.0142 75.0307 21.2926 75.0307 20.4972C75.0307 19.696 74.9142 18.9716 74.6812 18.3239C74.454 17.6705 74.1074 17.1506 73.6415 16.7642C73.1756 16.3778 72.596 16.1847 71.9028 16.1847C71.1926 16.1847 70.6017 16.3778 70.1301 16.7642C69.6642 17.1506 69.3148 17.6705 69.0818 18.3239C68.8545 18.9716 68.7409 19.696 68.7409 20.4972C68.7409 21.2926 68.8545 22.0142 69.0818 22.6619C69.3148 23.3097 69.6642 23.8267 70.1301 24.2131C70.6017 24.5937 71.1926 24.7841 71.9028 24.7841ZM80.7771 27V13.9091H83.7686V16.0909H83.905C84.1436 15.3352 84.5527 14.7528 85.1322 14.3438C85.7175 13.929 86.3851 13.7216 87.1351 13.7216C87.3055 13.7216 87.4959 13.7301 87.7061 13.7472C87.922 13.7585 88.101 13.7784 88.243 13.8068V16.6449C88.1123 16.5994 87.905 16.5597 87.6209 16.5256C87.3425 16.4858 87.0726 16.4659 86.8112 16.4659C86.2487 16.4659 85.743 16.5881 85.2942 16.8324C84.851 17.071 84.5016 17.4034 84.2459 17.8295C83.9902 18.2557 83.8623 18.7472 83.8623 19.304V27H80.7771ZM93.1052 22.892L93.0967 19.1676H93.591L98.2956 13.9091H101.901L96.1138 20.3523H95.4746L93.1052 22.892ZM90.2927 27V9.54545H93.378V27H90.2927ZM98.5087 27L94.2473 21.0426L96.3268 18.8693L102.199 27H98.5087ZM107.255 9.54545V27H104.093V9.54545H107.255ZM117.182 21.1364H120.046L121.742 23.3352L122.952 24.767L125.858 28.5H122.79L120.813 25.9943L119.969 24.8011L117.182 21.1364ZM126.276 18.2727C126.276 20.1534 125.923 21.7642 125.219 23.1051C124.52 24.4403 123.565 25.4631 122.355 26.1733C121.151 26.8835 119.784 27.2386 118.256 27.2386C116.727 27.2386 115.358 26.8835 114.148 26.1733C112.943 25.4574 111.989 24.4318 111.284 23.0966C110.585 21.7557 110.236 20.1477 110.236 18.2727C110.236 16.392 110.585 14.7841 111.284 13.4489C111.989 12.108 112.943 11.0824 114.148 10.3722C115.358 9.66193 116.727 9.30682 118.256 9.30682C119.784 9.30682 121.151 9.66193 122.355 10.3722C123.565 11.0824 124.52 12.108 125.219 13.4489C125.923 14.7841 126.276 16.392 126.276 18.2727ZM123.097 18.2727C123.097 16.9489 122.889 15.8324 122.475 14.9233C122.065 14.0085 121.497 13.3182 120.77 12.8523C120.043 12.3807 119.205 12.1449 118.256 12.1449C117.307 12.1449 116.469 12.3807 115.742 12.8523C115.014 13.3182 114.443 14.0085 114.029 14.9233C113.619 15.8324 113.415 16.9489 113.415 18.2727C113.415 19.5966 113.619 20.7159 114.029 21.6307C114.443 22.5398 115.014 23.2301 115.742 23.7017C116.469 24.1676 117.307 24.4006 118.256 24.4006C119.205 24.4006 120.043 24.1676 120.77 23.7017C121.497 23.2301 122.065 22.5398 122.475 21.6307C122.889 20.7159 123.097 19.5966 123.097 18.2727Z" fill="#1F2937"/>
</svg>
