<svg width="128" height="36" viewBox="0 0 128 36" fill="none" xmlns="http://www.w3.org/2000/svg">
  <mask id="mask0_34_1263" style="mask-type:alpha" maskUnits="userSpaceOnUse" x="0" y="1" width="30" height="34">
  <path d="M12.0589 2.44621C13.8053 1.43793 15.9569 1.43793 17.7033 2.44621L26.94 7.77901C28.6864 8.78728 29.7622 10.6507 29.7622 12.6672V23.3328C29.7622 25.3494 28.6864 27.2127 26.94 28.221L17.7033 33.5538C15.9569 34.5621 13.8053 34.5621 12.0589 33.5538L2.8222 28.221C1.07582 27.2127 0 25.3494 0 23.3328V12.6672C0 10.6507 1.07582 8.78729 2.8222 7.77901L12.0589 2.44621Z" fill="#3B82F6"/>
  </mask>
  <g mask="url(#mask0_34_1263)">
  <path d="M14.8769 0.53598L31.1887 9.95362L22.9338 14.3984L19.5241 12.5385L16.4243 12.8485L8.67489 10.0587L6.81503 12.5385L5.8851 13.7784L4.02524 12.5385L-1.43496 9.95362L14.8769 0.53598Z" fill="#3B82F6"/>
  <path d="M-0.128571 10.087L6.19932 13.1555L9.91905 22.1449L9.91905 22.4549L11.159 24.0048L16.7385 28.3444L14.8806 36.0835L-0.128571 27.418L-0.128571 10.087Z" fill="#3B82F6"/>
  <path d="M19.834 22.4544L23.8637 13.775L29.886 10.0888L29.886 27.4199L14.8768 36.0854L14.5644 28.344L19.834 22.4544Z" fill="#3B82F6"/>
  <path d="M14.8762 7.58273C12.3114 7.58273 9.97404 8.55621 8.21317 10.1538L9.64274 22.4615C10.0337 22.642 12.2758 23.3916 12.7064 23.3916H15.8062C16.354 23.3916 20.1459 22.2238 20.1459 22.7716L19.8359 21.4696C19.8359 22.0175 19.3918 22.4615 18.844 22.4615H10.9085C10.3607 22.4615 9.91661 22.0175 9.91661 21.4696V16.6676C9.91661 16.237 9.82317 15.8116 9.64274 15.4205L8.21317 10.1538C6.61557 11.9146 4.95697 14.9372 4.95697 17.502C4.95697 22.9803 9.39793 27.4213 14.8762 27.4213C20.3546 27.4213 24.7955 22.9803 24.7955 17.502C24.7955 12.0237 20.3546 7.58273 14.8762 7.58273Z" fill="#3B82F6"/>
  <rect width="10.5392" height="10.5392" transform="translate(8.24115 20.1904) rotate(-66.1323)" fill="#3B82F6"/>
  <path d="M13.0393 11.7229C13.2582 11.6384 13.4926 11.6052 13.7245 11.6259C13.9565 11.6466 14.1799 11.7206 14.378 11.8422C14.5761 11.9639 14.7436 12.1301 14.8678 12.3282C14.992 12.5264 15.0697 12.7512 15.0949 12.9858C15.275 14.6757 14.8955 16.3867 14.0159 17.8504C13.1364 19.314 11.8065 20.4474 10.2351 21.0727L9.12304 18.1973C10.0617 17.8234 10.8568 17.1474 11.3845 16.2744C11.9123 15.4014 12.1433 14.3804 12.0414 13.3701C12.0043 13.0252 12.0821 12.6758 12.2623 12.3774C12.4426 12.079 12.7151 11.8486 13.0366 11.7228L13.0393 11.7229Z" fill="#9C5AFF"/>
  <path d="M13.0265 11.7276C12.6467 11.8789 12.3394 12.1761 12.1723 12.5538C12.0052 12.9315 11.9919 13.3587 12.1354 13.7416L15.3854 22.4085C15.5291 22.7913 15.8177 23.0984 16.1879 23.2621C16.558 23.4259 16.9794 23.433 17.3593 23.2819C17.5475 23.207 17.7198 23.0956 17.8665 22.9538C18.0131 22.8121 18.1312 22.6429 18.2139 22.4558C18.2967 22.2688 18.3425 22.0676 18.3488 21.8637C18.3551 21.6599 18.3217 21.4574 18.2505 21.2678L15.0004 12.601C14.9294 12.4113 14.822 12.2383 14.6843 12.0918C14.5467 11.9452 14.3815 11.828 14.1981 11.7469C14.0148 11.6658 13.817 11.6224 13.616 11.619C13.4149 11.6157 13.2146 11.6526 13.0265 11.7276Z" fill="#9C5AFF"/>
  <path d="M17.345 23.2842C17.1261 23.3688 16.8918 23.402 16.6599 23.3814C16.428 23.3608 16.2045 23.2868 16.0065 23.1652C15.8084 23.0436 15.6409 22.8774 15.5167 22.6794C15.3925 22.4813 15.3148 22.2565 15.2895 22.022C15.1096 20.3321 15.4892 18.621 16.3687 17.1573C17.2482 15.6936 18.5778 14.5601 20.1491 13.9345L21.2612 16.811C20.3226 17.1848 19.5275 17.8608 18.9997 18.7338C18.4719 19.6068 18.241 20.6278 18.3429 21.6381C18.3794 21.9832 18.3011 22.3325 18.1204 22.6307C17.9396 22.9289 17.6667 23.1589 17.345 23.2842Z" fill="#9C5AFF"/>
  </g>
  <path d="M47.1571 27L42.2309 9.54545H45.6315L48.7764 22.3722H48.9383L52.2963 9.54545H55.39L58.7565 22.3807H58.9099L62.0548 9.54545H65.4554L60.5292 27H57.4099L53.9156 14.7528H53.7792L50.2764 27H47.1571ZM71.8858 27.2557C70.6073 27.2557 69.4994 26.9744 68.5619 26.4119C67.6244 25.8494 66.8971 25.0625 66.3801 24.0511C65.8687 23.0398 65.613 21.858 65.613 20.5057C65.613 19.1534 65.8687 17.9687 66.3801 16.9517C66.8971 15.9347 67.6244 15.1449 68.5619 14.5824C69.4994 14.0199 70.6073 13.7386 71.8858 13.7386C73.1642 13.7386 74.2721 14.0199 75.2096 14.5824C76.1471 15.1449 76.8716 15.9347 77.3829 16.9517C77.9 17.9687 78.1585 19.1534 78.1585 20.5057C78.1585 21.858 77.9 23.0398 77.3829 24.0511C76.8716 25.0625 76.1471 25.8494 75.2096 26.4119C74.2721 26.9744 73.1642 27.2557 71.8858 27.2557ZM71.9028 24.7841C72.596 24.7841 73.1755 24.5937 73.6414 24.2131C74.1073 23.8267 74.4539 23.3097 74.6812 22.6619C74.9142 22.0142 75.0306 21.2926 75.0306 20.4972C75.0306 19.696 74.9142 18.9716 74.6812 18.3239C74.4539 17.6705 74.1073 17.1506 73.6414 16.7642C73.1755 16.3778 72.596 16.1847 71.9028 16.1847C71.1926 16.1847 70.6017 16.3778 70.1301 16.7642C69.6642 17.1506 69.3147 17.6705 69.0818 18.3239C68.8545 18.9716 68.7409 19.696 68.7409 20.4972C68.7409 21.2926 68.8545 22.0142 69.0818 22.6619C69.3147 23.3097 69.6642 23.8267 70.1301 24.2131C70.6017 24.5937 71.1926 24.7841 71.9028 24.7841ZM80.7771 27V13.9091H83.7686V16.0909H83.9049C84.1436 15.3352 84.5527 14.7528 85.1322 14.3438C85.7174 13.929 86.385 13.7216 87.135 13.7216C87.3055 13.7216 87.4958 13.7301 87.7061 13.7472C87.922 13.7585 88.101 13.7784 88.243 13.8068V16.6449C88.1123 16.5994 87.9049 16.5597 87.6208 16.5256C87.3424 16.4858 87.0725 16.4659 86.8112 16.4659C86.2487 16.4659 85.743 16.5881 85.2941 16.8324C84.851 17.071 84.5015 17.4034 84.2458 17.8295C83.9902 18.2557 83.8623 18.7472 83.8623 19.304V27H80.7771ZM93.1052 22.892L93.0967 19.1676H93.591L98.2956 13.9091H101.901L96.1137 20.3523H95.4745L93.1052 22.892ZM90.2927 27V9.54545H93.3779V27H90.2927ZM98.5086 27L94.2473 21.0426L96.3268 18.8693L102.199 27H98.5086ZM107.255 9.54545V27H104.093V9.54545H107.255ZM117.182 21.1364H120.046L121.742 23.3352L122.952 24.767L125.858 28.5H122.79L120.813 25.9943L119.969 24.8011L117.182 21.1364ZM126.276 18.2727C126.276 20.1534 125.923 21.7642 125.219 23.1051C124.52 24.4403 123.565 25.4631 122.355 26.1733C121.151 26.8835 119.784 27.2386 118.256 27.2386C116.727 27.2386 115.358 26.8835 114.148 26.1733C112.943 25.4574 111.989 24.4318 111.284 23.0966C110.585 21.7557 110.236 20.1477 110.236 18.2727C110.236 16.392 110.585 14.7841 111.284 13.4489C111.989 12.108 112.943 11.0824 114.148 10.3722C115.358 9.66193 116.727 9.30682 118.256 9.30682C119.784 9.30682 121.151 9.66193 122.355 10.3722C123.565 11.0824 124.52 12.108 125.219 13.4489C125.923 14.7841 126.276 16.392 126.276 18.2727ZM123.097 18.2727C123.097 16.9489 122.889 15.8324 122.475 14.9233C122.065 14.0085 121.497 13.3182 120.77 12.8523C120.043 12.3807 119.205 12.1449 118.256 12.1449C117.307 12.1449 116.469 12.3807 115.742 12.8523C115.014 13.3182 114.443 14.0085 114.029 14.9233C113.619 15.8324 113.415 16.9489 113.415 18.2727C113.415 19.5966 113.619 20.7159 114.029 21.6307C114.443 22.5398 115.014 23.2301 115.742 23.7017C116.469 24.1676 117.307 24.4006 118.256 24.4006C119.205 24.4006 120.043 24.1676 120.77 23.7017C121.497 23.2301 122.065 22.5398 122.475 21.6307C122.889 20.7159 123.097 19.5966 123.097 18.2727Z" fill="#1F2937"/>
  </svg>
  